# xmcd
#
# Track frame offsets: 
#        150
#        13735
#        22922
#        27650
#        36742
#        47325
#        61802
#        73485
#        80095
#        88127
#        96717
#        113647
#        123275
#        135687
#        145297
#        154170
#        169147
#        180042
#        191910
#        208332
#        225782
#        239322
#        257162
#        273485
#        285262
#        296332
#        313135
#
# Disc length: 4433 seconds
#
# Revision: 5
# Processed by: cddbd v1.5.2PL0 Copyright (c) Steve Scherf et al.
# Submitted via: ExactAudioCopy v1.0b2
#
DISCID=8f114f1b
DTITLE=Various Artist - Space Batlleship Yamato Eternal Edition File No.6
DYEAR=2000
DGENRE=Soundtrack
TTITLE0=Prologue - Quiet Invasion
TTITLE1=The Double Nucleus Bomb Begins to Move
TTITLE2=Surprise Attack of the Paratroopers
TTITLE3=The Dark Nebula Empire
TTITLE4=Destruction of the Unmanned Fleet
TTITLE5=The Two Lovers Unite
TTITLE6=Wounded Warriors
TTITLE7=Escape
TTITLE8=Disappointed Love
TTITLE9=Lt. Arufon
TTITLE10=The Double Nucleus Bomb
TTITLE11=Our Yamato
TTITLE12=Pendant of Stars (Movie Version)
TTITLE13=Sasha - Happiness
TTITLE14=Yamato Advances Through Unknown Space
TTITLE15=The Black Galaxy
TTITLE16=Sasha's Thoughts
TTITLE17=The Dark Nebula
TTITLE18=The Double Galaxies
TTITLE19=Earth 200 Years Later
TTITLE20=The Giant Battleship Gurodez
TTITLE21=Showdown of Destiny
TTITLE22=Collapse of the Mother Planet (Dezariam)
TTITLE23=Dezariam - Defensive Battle
TTITLE24=Yamato Rushes In
TTITLE25=The Quartz City ~ Sasha - Parting
TTITLE26=Birth of the New Galaxy
EXTD=YEAR: 2000.12.30
EXTT0=
EXTT1=
EXTT2=
EXTT3=
EXTT4=
EXTT5=
EXTT6=
EXTT7=
EXTT8=
EXTT9=
EXTT10=
EXTT11=
EXTT12=
EXTT13=
EXTT14=
EXTT15=
EXTT16=
EXTT17=
EXTT18=
EXTT19=
EXTT20=
EXTT21=
EXTT22=
EXTT23=
EXTT24=
EXTT25=
EXTT26=
PLAYORDER=
